solid OpenSCAD_Model
  facet normal -1 0 0
    outer loop
      vertex 0 0 0
      vertex 0 16 4
      vertex 0 16 0
    endloop
  endfacet
  facet normal -1 -0 0
    outer loop
      vertex 0 16 4
      vertex 0 0 0
      vertex 0 0 4
    endloop
  endfacet
  facet normal -0 0 1
    outer loop
      vertex 52.1194 1.91342 4
      vertex 65 0 4
      vertex 65 16 4
    endloop
  endfacet
  facet normal 0 0 1
    outer loop
      vertex 65 0 4
      vertex 52.1194 1.91342 4
      vertex 52.5 0 4
    endloop
  endfacet
  facet normal 0 0 1
    outer loop
      vertex 65 16 4
      vertex 51.0355 3.53553 4
      vertex 52.1194 1.91342 4
    endloop
  endfacet
  facet normal 0 0 1
    outer loop
      vertex 65 16 4
      vertex 49.4134 4.6194 4
      vertex 51.0355 3.53553 4
    endloop
  endfacet
  facet normal 0 0 1
    outer loop
      vertex 65 16 4
      vertex 47.5 5 4
      vertex 49.4134 4.6194 4
    endloop
  endfacet
  facet normal 0 0 1
    outer loop
      vertex 65 16 4
      vertex 45.5866 4.6194 4
      vertex 47.5 5 4
    endloop
  endfacet
  facet normal -0 0 1
    outer loop
      vertex 0 16 4
      vertex 45.5866 4.6194 4
      vertex 65 16 4
    endloop
  endfacet
  facet normal 0 0 1
    outer loop
      vertex 0 16 4
      vertex 43.9645 3.53553 4
      vertex 45.5866 4.6194 4
    endloop
  endfacet
  facet normal 0 0 1
    outer loop
      vertex 0 16 4
      vertex 42.8806 1.91342 4
      vertex 43.9645 3.53553 4
    endloop
  endfacet
  facet normal 0 0 1
    outer loop
      vertex 0 0 4
      vertex 42.8806 1.91342 4
      vertex 0 16 4
    endloop
  endfacet
  facet normal 0 0 1
    outer loop
      vertex 42.8806 1.91342 4
      vertex 0 0 4
      vertex 42.5 0 4
    endloop
  endfacet
  facet normal 1 -0 0
    outer loop
      vertex 65 0 4
      vertex 65 16 0
      vertex 65 16 4
    endloop
  endfacet
  facet normal 1 0 0
    outer loop
      vertex 65 16 0
      vertex 65 0 4
      vertex 65 0 0
    endloop
  endfacet
  facet normal 0 0 -1
    outer loop
      vertex 52.1194 1.91342 0
      vertex 65 0 0
      vertex 52.5 0 0
    endloop
  endfacet
  facet normal 0 0 -1
    outer loop
      vertex 65 0 0
      vertex 52.1194 1.91342 0
      vertex 65 16 0
    endloop
  endfacet
  facet normal 0 0 -1
    outer loop
      vertex 51.0355 3.53553 0
      vertex 65 16 0
      vertex 52.1194 1.91342 0
    endloop
  endfacet
  facet normal 0 0 -1
    outer loop
      vertex 49.4134 4.6194 0
      vertex 65 16 0
      vertex 51.0355 3.53553 0
    endloop
  endfacet
  facet normal 0 0 -1
    outer loop
      vertex 47.5 5 0
      vertex 65 16 0
      vertex 49.4134 4.6194 0
    endloop
  endfacet
  facet normal 0 0 -1
    outer loop
      vertex 45.5866 4.6194 0
      vertex 65 16 0
      vertex 47.5 5 0
    endloop
  endfacet
  facet normal 0 0 -1
    outer loop
      vertex 0 0 0
      vertex 42.8806 1.91342 0
      vertex 42.5 0 0
    endloop
  endfacet
  facet normal 0 0 -1
    outer loop
      vertex 0 16 0
      vertex 42.8806 1.91342 0
      vertex 0 0 0
    endloop
  endfacet
  facet normal 0 0 -1
    outer loop
      vertex 42.8806 1.91342 0
      vertex 0 16 0
      vertex 43.9645 3.53553 0
    endloop
  endfacet
  facet normal 0 0 -1
    outer loop
      vertex 43.9645 3.53553 0
      vertex 0 16 0
      vertex 45.5866 4.6194 0
    endloop
  endfacet
  facet normal 0 0 -1
    outer loop
      vertex 45.5866 4.6194 0
      vertex 0 16 0
      vertex 65 16 0
    endloop
  endfacet
  facet normal 0 -1 0
    outer loop
      vertex 0 0 0
      vertex 42.5 0 4
      vertex 0 0 4
    endloop
  endfacet
  facet normal 0 -1 -0
    outer loop
      vertex 42.5 0 4
      vertex 0 0 0
      vertex 42.5 0 0
    endloop
  endfacet
  facet normal 0 -1 0
    outer loop
      vertex 52.5 0 0
      vertex 65 0 4
      vertex 52.5 0 4
    endloop
  endfacet
  facet normal 0 -1 -0
    outer loop
      vertex 65 0 4
      vertex 52.5 0 0
      vertex 65 0 0
    endloop
  endfacet
  facet normal 0 1 -0
    outer loop
      vertex 65 16 0
      vertex 0 16 4
      vertex 65 16 4
    endloop
  endfacet
  facet normal 0 1 0
    outer loop
      vertex 0 16 4
      vertex 65 16 0
      vertex 0 16 0
    endloop
  endfacet
  facet normal -0.980785 -0.195091 0
    outer loop
      vertex 52.5 0 0
      vertex 52.1194 1.91342 4
      vertex 52.1194 1.91342 0
    endloop
  endfacet
  facet normal -0.980785 -0.195091 0
    outer loop
      vertex 52.1194 1.91342 4
      vertex 52.5 0 0
      vertex 52.5 0 4
    endloop
  endfacet
  facet normal 0.195091 -0.980785 0
    outer loop
      vertex 45.5866 4.6194 0
      vertex 47.5 5 4
      vertex 45.5866 4.6194 4
    endloop
  endfacet
  facet normal 0.195091 -0.980785 0
    outer loop
      vertex 47.5 5 4
      vertex 45.5866 4.6194 0
      vertex 47.5 5 0
    endloop
  endfacet
  facet normal -0.55557 -0.83147 0
    outer loop
      vertex 49.4134 4.6194 0
      vertex 51.0355 3.53553 4
      vertex 49.4134 4.6194 4
    endloop
  endfacet
  facet normal -0.55557 -0.83147 -0
    outer loop
      vertex 51.0355 3.53553 4
      vertex 49.4134 4.6194 0
      vertex 51.0355 3.53553 0
    endloop
  endfacet
  facet normal -0.83147 -0.55557 0
    outer loop
      vertex 52.1194 1.91342 0
      vertex 51.0355 3.53553 4
      vertex 51.0355 3.53553 0
    endloop
  endfacet
  facet normal -0.83147 -0.55557 0
    outer loop
      vertex 51.0355 3.53553 4
      vertex 52.1194 1.91342 0
      vertex 52.1194 1.91342 4
    endloop
  endfacet
  facet normal -0.195091 -0.980785 0
    outer loop
      vertex 47.5 5 0
      vertex 49.4134 4.6194 4
      vertex 47.5 5 4
    endloop
  endfacet
  facet normal -0.195091 -0.980785 -0
    outer loop
      vertex 49.4134 4.6194 4
      vertex 47.5 5 0
      vertex 49.4134 4.6194 0
    endloop
  endfacet
  facet normal 0.831469 -0.555571 0
    outer loop
      vertex 42.8806 1.91342 4
      vertex 43.9645 3.53553 0
      vertex 43.9645 3.53553 4
    endloop
  endfacet
  facet normal 0.831469 -0.555571 0
    outer loop
      vertex 43.9645 3.53553 0
      vertex 42.8806 1.91342 4
      vertex 42.8806 1.91342 0
    endloop
  endfacet
  facet normal 0.980786 -0.195089 0
    outer loop
      vertex 42.5 0 4
      vertex 42.8806 1.91342 0
      vertex 42.8806 1.91342 4
    endloop
  endfacet
  facet normal 0.980786 -0.195089 0
    outer loop
      vertex 42.8806 1.91342 0
      vertex 42.5 0 4
      vertex 42.5 0 0
    endloop
  endfacet
  facet normal 0.55557 -0.83147 0
    outer loop
      vertex 43.9645 3.53553 0
      vertex 45.5866 4.6194 4
      vertex 43.9645 3.53553 4
    endloop
  endfacet
  facet normal 0.55557 -0.83147 0
    outer loop
      vertex 45.5866 4.6194 4
      vertex 43.9645 3.53553 0
      vertex 45.5866 4.6194 0
    endloop
  endfacet
endsolid OpenSCAD_Model
