solid OpenSCAD_Model
  facet normal -1 0 0
    outer loop
      vertex 0 0 0
      vertex 0 16 4
      vertex 0 16 0
    endloop
  endfacet
  facet normal -1 -0 0
    outer loop
      vertex 0 16 4
      vertex 0 0 0
      vertex 0 0 4
    endloop
  endfacet
  facet normal -0 0 1
    outer loop
      vertex 49.2678 4.26777 4
      vertex 65 0 4
      vertex 65 16 4
    endloop
  endfacet
  facet normal 0 0 1
    outer loop
      vertex 65 0 4
      vertex 49.2678 4.26777 4
      vertex 50 2.5 4
    endloop
  endfacet
  facet normal 0 0 1
    outer loop
      vertex 65 16 4
      vertex 47.5 5 4
      vertex 49.2678 4.26777 4
    endloop
  endfacet
  facet normal -0 0 1
    outer loop
      vertex 0 16 4
      vertex 47.5 5 4
      vertex 65 16 4
    endloop
  endfacet
  facet normal 0 0 1
    outer loop
      vertex 47.5 5 4
      vertex 0 16 4
      vertex 45.7322 4.26777 4
    endloop
  endfacet
  facet normal 0 0 1
    outer loop
      vertex 0 16 4
      vertex 45 2.5 4
      vertex 45.7322 4.26777 4
    endloop
  endfacet
  facet normal 0 0 1
    outer loop
      vertex 0 0 4
      vertex 45 2.5 4
      vertex 0 16 4
    endloop
  endfacet
  facet normal 0 0 1
    outer loop
      vertex 45 2.5 4
      vertex 0 0 4
      vertex 45 0 4
    endloop
  endfacet
  facet normal 0 0 1
    outer loop
      vertex 65 0 4
      vertex 50 2.5 4
      vertex 50 0 4
    endloop
  endfacet
  facet normal 1 -0 0
    outer loop
      vertex 65 0 4
      vertex 65 16 0
      vertex 65 16 4
    endloop
  endfacet
  facet normal 1 0 0
    outer loop
      vertex 65 16 0
      vertex 65 0 4
      vertex 65 0 0
    endloop
  endfacet
  facet normal 0 1 -0
    outer loop
      vertex 65 16 0
      vertex 0 16 4
      vertex 65 16 4
    endloop
  endfacet
  facet normal 0 1 0
    outer loop
      vertex 0 16 4
      vertex 65 16 0
      vertex 0 16 0
    endloop
  endfacet
  facet normal 0 0 -1
    outer loop
      vertex 45 0 0
      vertex 0 0 0
      vertex 45 2.5 0
    endloop
  endfacet
  facet normal 0 0 -1
    outer loop
      vertex 50 2.5 0
      vertex 65 0 0
      vertex 50 0 0
    endloop
  endfacet
  facet normal 0 0 -1
    outer loop
      vertex 49.2678 4.26777 0
      vertex 65 0 0
      vertex 50 2.5 0
    endloop
  endfacet
  facet normal 0 0 -1
    outer loop
      vertex 65 0 0
      vertex 49.2678 4.26777 0
      vertex 65 16 0
    endloop
  endfacet
  facet normal 0 0 -1
    outer loop
      vertex 47.5 5 0
      vertex 65 16 0
      vertex 49.2678 4.26777 0
    endloop
  endfacet
  facet normal 0 0 -1
    outer loop
      vertex 0 16 0
      vertex 47.5 5 0
      vertex 45.7322 4.26777 0
    endloop
  endfacet
  facet normal 0 0 -1
    outer loop
      vertex 0 16 0
      vertex 45 2.5 0
      vertex 0 0 0
    endloop
  endfacet
  facet normal 0 0 -1
    outer loop
      vertex 45 2.5 0
      vertex 0 16 0
      vertex 45.7322 4.26777 0
    endloop
  endfacet
  facet normal 0 0 -1
    outer loop
      vertex 47.5 5 0
      vertex 0 16 0
      vertex 65 16 0
    endloop
  endfacet
  facet normal 0 -1 0
    outer loop
      vertex 0 0 0
      vertex 45 0 4
      vertex 0 0 4
    endloop
  endfacet
  facet normal 0 -1 -0
    outer loop
      vertex 45 0 4
      vertex 0 0 0
      vertex 45 0 0
    endloop
  endfacet
  facet normal 0 -1 0
    outer loop
      vertex 50 0 0
      vertex 65 0 4
      vertex 50 0 4
    endloop
  endfacet
  facet normal 0 -1 -0
    outer loop
      vertex 65 0 4
      vertex 50 0 0
      vertex 65 0 0
    endloop
  endfacet
  facet normal -0.92388 -0.382683 0
    outer loop
      vertex 50 2.5 0
      vertex 49.2678 4.26777 4
      vertex 49.2678 4.26777 0
    endloop
  endfacet
  facet normal -0.92388 -0.382683 0
    outer loop
      vertex 49.2678 4.26777 4
      vertex 50 2.5 0
      vertex 50 2.5 4
    endloop
  endfacet
  facet normal 0.382683 -0.92388 0
    outer loop
      vertex 45.7322 4.26777 0
      vertex 47.5 5 4
      vertex 45.7322 4.26777 4
    endloop
  endfacet
  facet normal 0.382683 -0.92388 0
    outer loop
      vertex 47.5 5 4
      vertex 45.7322 4.26777 0
      vertex 47.5 5 0
    endloop
  endfacet
  facet normal -0.382683 -0.92388 0
    outer loop
      vertex 47.5 5 0
      vertex 49.2678 4.26777 4
      vertex 47.5 5 4
    endloop
  endfacet
  facet normal -0.382683 -0.92388 -0
    outer loop
      vertex 49.2678 4.26777 4
      vertex 47.5 5 0
      vertex 49.2678 4.26777 0
    endloop
  endfacet
  facet normal 0.92388 -0.382683 0
    outer loop
      vertex 45 2.5 4
      vertex 45.7322 4.26777 0
      vertex 45.7322 4.26777 4
    endloop
  endfacet
  facet normal 0.92388 -0.382683 0
    outer loop
      vertex 45.7322 4.26777 0
      vertex 45 2.5 4
      vertex 45 2.5 0
    endloop
  endfacet
  facet normal 1 -0 0
    outer loop
      vertex 45 0 4
      vertex 45 2.5 0
      vertex 45 2.5 4
    endloop
  endfacet
  facet normal 1 0 0
    outer loop
      vertex 45 2.5 0
      vertex 45 0 4
      vertex 45 0 0
    endloop
  endfacet
  facet normal -1 0 0
    outer loop
      vertex 50 0 0
      vertex 50 2.5 4
      vertex 50 2.5 0
    endloop
  endfacet
  facet normal -1 -0 0
    outer loop
      vertex 50 2.5 4
      vertex 50 0 0
      vertex 50 0 4
    endloop
  endfacet
endsolid OpenSCAD_Model
