solid OpenSCAD_Model
  facet normal -1 0 0
    outer loop
      vertex 0 0 0
      vertex 0 16 16
      vertex 0 16 0
    endloop
  endfacet
  facet normal -1 -0 0
    outer loop
      vertex 0 16 16
      vertex 0 0 0
      vertex 0 0 16
    endloop
  endfacet
  facet normal -0 0 1
    outer loop
      vertex 0 16 16
      vertex 16 0 16
      vertex 16 16 16
    endloop
  endfacet
  facet normal 0 0 1
    outer loop
      vertex 16 0 16
      vertex 0 16 16
      vertex 0 0 16
    endloop
  endfacet
  facet normal 1 0 0
    outer loop
      vertex 16 16 16
      vertex 16 8 8
      vertex 16 16 8
    endloop
  endfacet
  facet normal 1 -0 0
    outer loop
      vertex 16 0 16
      vertex 16 8 8
      vertex 16 16 16
    endloop
  endfacet
  facet normal 1 0 0
    outer loop
      vertex 16 0 0
      vertex 16 8 8
      vertex 16 0 16
    endloop
  endfacet
  facet normal 1 0 0
    outer loop
      vertex 16 8 8
      vertex 16 0 0
      vertex 16 8 0
    endloop
  endfacet
  facet normal 0 0 -1
    outer loop
      vertex 8 8 8
      vertex 16 16 8
      vertex 16 8 8
    endloop
  endfacet
  facet normal -0 0 -1
    outer loop
      vertex 16 16 8
      vertex 8 8 8
      vertex 8 16 8
    endloop
  endfacet
  facet normal 0 -1 0
    outer loop
      vertex 0 0 0
      vertex 16 0 16
      vertex 0 0 16
    endloop
  endfacet
  facet normal 0 -1 -0
    outer loop
      vertex 16 0 16
      vertex 0 0 0
      vertex 16 0 0
    endloop
  endfacet
  facet normal 0 1 0
    outer loop
      vertex 8 16 8
      vertex 16 16 16
      vertex 16 16 8
    endloop
  endfacet
  facet normal 0 1 0
    outer loop
      vertex 16 16 16
      vertex 8 16 8
      vertex 0 16 16
    endloop
  endfacet
  facet normal 0 1 0
    outer loop
      vertex 0 16 0
      vertex 8 16 8
      vertex 8 16 0
    endloop
  endfacet
  facet normal 0 1 0
    outer loop
      vertex 8 16 8
      vertex 0 16 0
      vertex 0 16 16
    endloop
  endfacet
  facet normal 0 0 -1
    outer loop
      vertex 16 0 0
      vertex 8 8 0
      vertex 16 8 0
    endloop
  endfacet
  facet normal 0 0 -1
    outer loop
      vertex 0 0 0
      vertex 8 8 0
      vertex 16 0 0
    endloop
  endfacet
  facet normal 0 0 -1
    outer loop
      vertex 0 16 0
      vertex 8 8 0
      vertex 0 0 0
    endloop
  endfacet
  facet normal 0 0 -1
    outer loop
      vertex 8 8 0
      vertex 0 16 0
      vertex 8 16 0
    endloop
  endfacet
  facet normal 0 1 -0
    outer loop
      vertex 16 8 0
      vertex 8 8 8
      vertex 16 8 8
    endloop
  endfacet
  facet normal 0 1 0
    outer loop
      vertex 8 8 8
      vertex 16 8 0
      vertex 8 8 0
    endloop
  endfacet
  facet normal 1 -0 0
    outer loop
      vertex 8 8 8
      vertex 8 16 0
      vertex 8 16 8
    endloop
  endfacet
  facet normal 1 0 0
    outer loop
      vertex 8 16 0
      vertex 8 8 8
      vertex 8 8 0
    endloop
  endfacet
endsolid OpenSCAD_Model
