solid OpenSCAD_Model
  facet normal -1 0 0
    outer loop
      vertex 0 120 0
      vertex 0 8 8
      vertex 0 120 16
    endloop
  endfacet
  facet normal -1 0 0
    outer loop
      vertex 0 0 0
      vertex 0 8 8
      vertex 0 120 0
    endloop
  endfacet
  facet normal -1 -0 0
    outer loop
      vertex 0 8 8
      vertex 0 0 0
      vertex 0 0 8
    endloop
  endfacet
  facet normal -1 -0 0
    outer loop
      vertex 0 120 16
      vertex 0 8 8
      vertex 0 8 16
    endloop
  endfacet
  facet normal -0 0 1
    outer loop
      vertex 0 120 16
      vertex 8 8 16
      vertex 8 120 16
    endloop
  endfacet
  facet normal 0 0 1
    outer loop
      vertex 8 8 16
      vertex 0 120 16
      vertex 0 8 16
    endloop
  endfacet
  facet normal 1 0 0
    outer loop
      vertex 8 8 8
      vertex 8 120 16
      vertex 8 8 16
    endloop
  endfacet
  facet normal 1 0 0
    outer loop
      vertex 8 120 16
      vertex 8 8 8
      vertex 8 120 0
    endloop
  endfacet
  facet normal 1 0 0
    outer loop
      vertex 8 0 0
      vertex 8 8 8
      vertex 8 0 8
    endloop
  endfacet
  facet normal 1 0 0
    outer loop
      vertex 8 8 8
      vertex 8 0 0
      vertex 8 120 0
    endloop
  endfacet
  facet normal 0 0 -1
    outer loop
      vertex 0 0 0
      vertex 8 120 0
      vertex 8 0 0
    endloop
  endfacet
  facet normal -0 0 -1
    outer loop
      vertex 8 120 0
      vertex 0 0 0
      vertex 0 120 0
    endloop
  endfacet
  facet normal 0 -1 0
    outer loop
      vertex 0 0 0
      vertex 8 0 8
      vertex 0 0 8
    endloop
  endfacet
  facet normal 0 -1 -0
    outer loop
      vertex 8 0 8
      vertex 0 0 0
      vertex 8 0 0
    endloop
  endfacet
  facet normal 0 1 -0
    outer loop
      vertex 8 120 0
      vertex 0 120 16
      vertex 8 120 16
    endloop
  endfacet
  facet normal 0 1 0
    outer loop
      vertex 0 120 16
      vertex 8 120 0
      vertex 0 120 0
    endloop
  endfacet
  facet normal 0 -1 0
    outer loop
      vertex 0 8 8
      vertex 8 8 16
      vertex 0 8 16
    endloop
  endfacet
  facet normal 0 -1 -0
    outer loop
      vertex 8 8 16
      vertex 0 8 8
      vertex 8 8 8
    endloop
  endfacet
  facet normal -0 0 1
    outer loop
      vertex 0 8 8
      vertex 8 0 8
      vertex 8 8 8
    endloop
  endfacet
  facet normal 0 0 1
    outer loop
      vertex 8 0 8
      vertex 0 8 8
      vertex 0 0 8
    endloop
  endfacet
endsolid OpenSCAD_Model
